<?xml version="1.0" encoding="utf-8"?>
<!-- Generator: Adobe Illustrator 17.0.0, SVG Export Plug-In . SVG Version: 6.00 Build 0)  -->
<!DOCTYPE svg PUBLIC "-//W3C//DTD SVG 1.1//EN" "http://www.w3.org/Graphics/SVG/1.1/DTD/svg11.dtd">
<svg version="1.1" id="Capa_1" xmlns="http://www.w3.org/2000/svg" xmlns:xlink="http://www.w3.org/1999/xlink" x="0px" y="0px"
	 width="612px" height="408.008px" viewBox="0 293.994 612 408.008" enable-background="new 0 293.994 612 408.008"
	 xml:space="preserve">
<rect y="293.997" fill="#F0F0F0" width="612" height="408.004"/>
<polygon fill="#D80027" points="344.25,293.994 267.75,293.994 267.75,459.743 0,459.743 0,536.243 267.75,536.243 267.75,701.992 
	344.25,701.992 344.25,536.243 612,536.243 612,459.743 344.25,459.743 "/>
<g>
	<polygon fill="#0052B4" points="470.696,568.949 612,647.453 612,568.949 	"/>
	<polygon fill="#0052B4" points="372.522,568.949 612,701.992 612,664.371 440.242,568.949 	"/>
	<polygon fill="#0052B4" points="548.211,701.992 372.522,604.378 372.522,701.992 	"/>
</g>
<polygon fill="#F0F0F0" points="372.522,568.949 612,701.992 612,664.371 440.242,568.949 "/>
<polygon fill="#D80027" points="372.522,568.949 612,701.992 612,664.371 440.242,568.949 "/>
<g>
	<polygon fill="#0052B4" points="107.986,568.947 0,628.94 0,568.947 	"/>
	<polygon fill="#0052B4" points="239.478,585.865 239.478,701.991 30.47,701.991 	"/>
</g>
<polygon fill="#D80027" points="171.758,568.949 0,664.371 0,701.992 0,701.992 239.478,568.949 "/>
<g>
	<polygon fill="#0052B4" points="141.304,427.037 0,348.534 0,427.037 	"/>
	<polygon fill="#0052B4" points="239.478,427.037 0,293.994 0,331.615 171.758,427.037 	"/>
	<polygon fill="#0052B4" points="63.789,293.994 239.478,391.608 239.478,293.994 	"/>
</g>
<polygon fill="#F0F0F0" points="239.478,427.037 0,293.994 0,331.615 171.758,427.037 "/>
<polygon fill="#D80027" points="239.478,427.037 0,293.994 0,331.615 171.758,427.037 "/>
<g>
	<polygon fill="#0052B4" points="504.014,427.039 612,367.047 612,427.039 	"/>
	<polygon fill="#0052B4" points="372.522,410.121 372.522,293.995 581.53,293.995 	"/>
</g>
<polygon fill="#D80027" points="440.242,427.037 612,331.615 612,293.994 612,293.994 372.522,427.037 "/>
</svg>
